<svg version="1.1" xmlns="http://www.w3.org/2000/svg" xmlns:xlink="http://www.w3.org/1999/xlink" x="0px" y="0px" viewBox="-47 170.9 500 500" style="enable-background:new -47 170.9 500 500;" xml:space="preserve">
<style type="text/css">
	.st0{fill:#FFC83B;}
	.st1{fill:#FFFFFF;}
</style>
	<g id="background">
		<path id="background_1_" class="st0" d="M453.1,238.5c0-37.3-30.2-67.6-67.6-67.6H20.6c-37.3,0-67.7,30.2-67.7,67.6v364.8 c0,37.3,30.2,67.6,67.6,67.6h364.8c37.3,0,67.6-30.2,67.6-67.6V238.5H453.1z"/>
	</g>
	<g id="icon">
		<path id="youarel" class="st1" d="M80,597c-14.3-4.9-23.6-10.6-33.7-20.8C31.1,560.8,23,540.8,23,518.5c0-16.2,3.1-28.7,10.9-43.9c5.2-10.1,11.8-17.4,51.7-57.2c48.8-48.8,54.5-53.2,77.5-60c11.8-3.5,35.5-3.5,47.2,0c19.3,5.8,37.2,18.7,40.7,29.3c7.2,21.9-18.9,38.8-36.3,23.6c-9.5-8.3-15.7-10.6-28.1-10.6c-19,0-22.2,2.3-68.6,48.6c-31.4,31.3-42,42.9-45.5,49.8c-14,27.7,3.5,57.8,33.5,57.6c16.1-0.1,24-5,51.1-31.5l23-22.4l8.2,3.8c10.6,4.9,29,7.5,39.3,5.6l7.8-1.5l-37.4,37c-40.2,39.7-48.6,45.9-70.1,51.4C113.7,601.9,92.9,601.4,80,597L80,597z M209.5,486.6c-23.7-2.3-49.9-17.5-54.6-31.8c-5.3-15.9,8.8-32.3,25-29.3c2.9,0.5,9.1,3.9,13.9,7.5c14.5,10.9,28.5,12.3,45.2,4.7c11.1-5,87.9-81.6,93.8-93.4c8.3-16.7,7.2-32.6-3.2-44.7c-8.5-9.9-17-13.8-29.8-13.8c-16.1,0.1-24,5-51.1,31.5l-23,22.4l-8.2-3.8c-10.6-4.9-29-7.5-39.2-5.6l-7.8,1.5l37.4-37c31.5-31.1,39.2-37.9,48.9-43c15.1-7.8,27.7-11,44-11c37.3,0,68.8,23.9,79.5,60.1c3.3,11.2,3.4,32.4,0.1,44.8c-1.4,5.3-5.1,14.8-8.4,21.1c-5.2,10.1-11.8,17.4-51.7,57.2c-47.1,47.1-52.3,51.3-72.9,58.7C238.2,486.1,221.6,487.8,209.5,486.6L209.5,486.6z"/>
	</g>
</svg>
