
<svg version="1.1" xmlns="http://www.w3.org/2000/svg" xmlns:xlink="http://www.w3.org/1999/xlink" x="0px" y="0px"
	 viewBox="-47 170.9 500 500" style="enable-background:new -47 170.9 500 500;" xml:space="preserve">
<style type="text/css">
	.st0{fill:#FFC83B;}
	.st1{fill:#FFFFFF;}
</style>
<g id="background">
	<path id="background_1_" class="st0" d="M453.1,238.5c0-37.3-30.2-67.6-67.6-67.6H20.6c-37.3,0-67.7,30.2-67.7,67.6v364.8
		c0,37.3,30.2,67.6,67.6,67.6h364.8c37.3,0,67.6-30.2,67.6-67.6V238.5H453.1z"/>
</g>
<g id="guides">
</g>
<g id="icon-mask">
	<path id="youarel_1_" class="st1" d="M32.2,665.6c-19.9-6.8-32.8-14.8-46.8-28.9C-35.8,615.3-47,587.6-47,556.6
		c0-22.4,4.3-39.9,15.1-60.9c7.2-14,16.4-24.2,71.8-79.5c67.8-67.8,75.7-73.9,107.6-83.4c16.4-4.9,49.3-4.9,65.6,0
		c26.9,8,51.7,25.9,56.6,40.7c10,30.4-26.2,53.9-50.4,32.8c-13.2-11.5-21.9-14.8-39-14.7c-26.4,0-30.9,3.2-95.3,67.5
		c-43.6,43.5-58.3,59.6-63.2,69.1c-19.4,38.5,4.9,80.3,46.5,80c22.3-0.1,33.3-7,71-43.7l31.9-31.1l11.4,5.3
		c14.8,6.8,40.3,10.5,54.5,7.8l10.9-2l-52,51.3c-55.9,55.1-67.5,63.7-97.3,71.4C79,672.4,50,671.7,32.2,665.6L32.2,665.6z
		 M212,512.2c-33-3.2-69.3-24.4-75.9-44.1c-7.3-22.1,12.3-44.9,34.8-40.7c4,0.7,12.7,5.4,19.3,10.4c20.1,15.1,39.6,17.1,62.8,6.6
		c15.4-7,122.2-113.4,130.4-129.8c11.6-23.3,10-45.2-4.4-62.1c-11.8-13.8-23.6-19.2-41.4-19.1c-22.3,0.1-33.3,6.9-71,43.7
		l-31.9,31.1l-11.4-5.3c-14.8-6.8-40.3-10.5-54.5-7.8l-10.9,2l52-51.4c43.7-43.3,54.5-52.7,68-59.7c21-10.9,38.4-15.2,61.1-15.2
		c51.8,0,95.6,33.1,110.4,83.5c4.6,15.6,4.7,45,0.1,62.2c-1.9,7.3-7.2,20.5-11.7,29.3c-7.2,14-16.4,24.2-71.7,79.5
		c-65.5,65.5-72.7,71.3-101.2,81.5C251.8,511.6,228.8,513.9,212,512.2L212,512.2z"/>
</g>
</svg>
