<svg version="1.1" xmlns="http://www.w3.org/2000/svg" xmlns:xlink="http://www.w3.org/1999/xlink" x="0px" y="0px" viewBox="-47 170.9 500 500" style="enable-background:new -47 170.9 500 500;" xml:space="preserve">

	<path id="background" fill="#FFC83B" d="M453.1,238.5c0-37.3-30.2-67.6-67.6-67.6H20.6c-37.3,0-67.7,30.2-67.7,67.6v364.8 c0,37.3,30.2,67.6,67.6,67.6h364.8c37.3,0,67.6-30.2,67.6-67.6V238.5H453.1z"/>

	<g id="icon" fill="#FFFFFF">
		<path id="arrow1" d="M345.6,243.5c-1.2-0.7-3-1-5.2-0.8l-105.8,10.2c-4.4,0.4-11.6,1.1-16,1.5l-105.8,10.2c-4.4,0.4-4.4,2.9,0.1,5.5l29.1,16.9c4.5,2.6,5.8,6,2.9,7.6L24.3,361.9c-2.9,1.6-1.5,5,2.9,7.6l91.4,53.1c4.5,2.6,10.4,3.4,13.3,1.8L252.3,357c2.9-1.6,8.8-0.8,13.3,1.8l29.1,16.9c4.5,2.6,8.8,2.7,9.6,0.2l19.8-60.1c0.8-2.5,2.2-6.6,3-9.1l19.8-60.1C347.3,245.2,346.7,244.1,345.6,243.5"/>		
		<path id="arrow2" d="M45.9,587.3c-1.2-0.7-1.7-1.7-1.3-3l18.6-56.7c0.8-2.5,2.2-6.6,3-9.1l18.6-56.7c0.8-2.5,5.1-2.4,9.6,0.2l26.8,15.6c4.5,2.6,10.4,3.4,13.3,1.8l124.8-69.8c2.9-1.6,8.8-0.8,13.3,1.8l86,49.9c4.5,2.6,5.8,6,2.9,7.6l-124.8,69.8c-2.9,1.6-1.5,5,2.9,7.6l26.8,15.6c4.5,2.6,4.5,5,0.1,5.5l-99.7,9.6c-4.4,0.4-11.6,1.1-16,1.5l-99.7,9.6C49,588.3,47.1,588,45.9,587.3 M369,455.5l-86-49.9c-13.4-7.8-31.3-10.2-39.8-5.4l-119.6,66.9l-18.7-10.9c-7.6-4.4-16.7-7.1-24.4-7.2c-7.7-0.1-13.1,2.3-14.5,6.6l-18.6,56.7l-2.3,6.9l-0.7,2.2L25.7,578c-1.6,4.9,2.1,10.5,9.9,15.1c7.8,4.5,17.6,6.8,26.2,5.9l99.7-9.6l16-1.5l99.7-9.6c7.5-0.7,11.9-3.8,11.8-8.2c-0.1-4.4-4.6-9.6-12.2-14.1l-18.7-10.9l119.6-66.9C386.3,473.5,382.3,463.3,369,455.5"/>
	</g>
</svg>
