<svg version="1.1" xmlns="http://www.w3.org/2000/svg" xmlns:xlink="http://www.w3.org/1999/xlink" x="0px" y="0px" viewBox="-47 170.9 500 500" style="enable-background:new -47 170.9 500 500;" xml:space="preserve">
  <g id="icon-mask" fill="#FFFFFF">
    <path id="arrow1" class="st4" d="M403.5,172.1c-1.6-1-4.2-1.4-7.2-1.1l-146.9,14.3c-6.1,0.6-16.1,1.6-22.2,2.2L80.2,201.6c-6.1,0.6-6.1,4,0.1,7.7l40.4,23.7c6.2,3.6,8,8.4,4,10.7l-167.2,94.5c-4,2.2-2.1,7,4,10.7l126.8,74.4c6.2,3.6,14.5,4.8,18.4,2.5l167.2-94.5c4-2.2,12.3-1.1,18.4,2.5l40.4,23.7c6.2,3.6,12.2,3.7,13.3,0.2l27.5-84.3c1.1-3.5,3-9.2,4.1-12.8l27.5-84.3C405.9,174.5,405.1,173.1,403.5,172.1"/>
    <path id="arrow2" class="st4" d="M-12.5,654.2c-1.6-1-2.4-2.4-1.8-4.2l25.9-79.4c1.1-3.5,3-9.2,4.2-12.8l25.9-79.4c1.1-3.5,7.1-3.4,13.3,0.2l37.2,21.8c6.2,3.6,14.5,4.8,18.4,2.5L283.8,405c4-2.2,12.3-1.1,18.4,2.5l119.3,70c6.2,3.6,8,8.4,4,10.7l-173.2,97.9c-4,2.2-2.1,7,4,10.7l37.2,21.8c6.2,3.6,6.2,7.1,0.1,7.7l-138.4,13.4c-6.1,0.6-16.1,1.6-22.2,2.2L-5.2,655.3C-8.3,655.6-10.8,655.2-12.5,654.2 M436,469.4l-119.3-70c-18.6-10.9-43.4-14.3-55.3-7.6l-166,93.9l-26-15.2c-10.5-6.2-23.2-10-33.9-10.1c-10.7-0.2-18.2,3.3-20.2,9.3L-10.6,549l-3.1,9.6l-1,3.1l-25.9,79.4c-2.2,6.9,2.9,14.8,13.8,21.1c10.8,6.4,24.5,9.5,36.4,8.3L148,657.2l22.2-2.2l138.4-13.4c10.4-1,16.6-5.3,16.5-11.5c-0.1-6.2-6.4-13.5-17-19.7l-26-15.2l166-93.9C460,494.7,454.6,480.3,436,469.4"/>
	</g>
</svg>
